<svg width="2244" height="394" viewBox="0 0 2244 394" fill="none" xmlns="http://www.w3.org/2000/svg">
<path d="M104.6 44.3C64.4999 68.6 31.7999 88.9 31.8999 89.5C32.0999 90.3 78.7999 118.1 82.4999 119.6C83.0999 119.9 87.3999 116.4 91.9999 112C110 94.6 132.5 82.8 158 77.3C169.9 74.8 198 74.8 210 77.3C234.9 82.6 256.2 93.2 275 109.5L282.4 115.9L289.5 112.1C308.4 101.7 329.3 89.4 329.4 88.6C329.5 87.4 181 2.96022e-07 179.1 0.1C178.2 0.1 144.7 20 104.6 44.3Z" fill="#296EB6"/>
<path d="M161.9 121C149 124.2 140.1 128.9 128.8 138.3C126.1 140.4 124 142.6 124 143C124 143.8 177.2 175 178.6 175C179.9 175 241 139.7 241 138.9C241 136.3 218.4 124.5 207.5 121.5C203.4 120.3 196.4 119.7 185.5 119.4C172.1 119.1 168.3 119.3 161.9 121Z" fill="#296EB6"/>
<path d="M0 220.2V307.5L76.4 350.7C118.4 374.5 153.3 394 153.9 394C154.7 394 155 384.6 154.8 359.9L154.5 325.8L145.5 323.5C108.1 313.8 77.3 286 63.7 249.8C55.2 227.5 53.1 195.1 58.4 172.5C59.6 167.9 59.6 166.2 58.7 165.4C57.1 163.8 2 133 0.9 133C0.4 133 0 170.9 0 220.2Z" fill="#E8BA1F"/>
<path d="M277.3 175.8L201.1 218.5L201 250.9V283.3L205.5 282.7C217.6 281 232.7 272.7 248.9 258.8L257.8 251.1L272.8 266.9L287.9 282.7L278.8 290.6C254.3 312.1 233.6 322.6 208.8 326.3L201 327.4V360.8C201 387.9 201.2 394.1 202.3 393.8C203 393.6 237.7 374.2 279.3 350.6L355 307.8V220.4C355 172.3 354.7 133 354.3 133C353.8 133.1 319.2 152.3 277.3 175.8Z" fill="#147138"/>
<path d="M101.3 205.2C101.9 223 103.2 228.5 109.7 242C113.7 250.1 115.8 252.9 123.9 261.1C132.1 269.2 134.9 271.3 143 275.3C148.2 277.9 153.1 280 153.8 280C154.8 280 155 273.4 154.8 249.4L154.5 218.7L129 204.4C115 196.5 102.9 190 102.1 190C101 190 100.9 192.7 101.3 205.2Z" fill="#E8BA1F"/>
<path d="M403.4 104.32H453.32V312H403.4V104.32ZM496.168 157.12H542.248V176C545.874 161.28 562.408 153.92 591.848 153.92C611.688 153.92 625.554 157.547 633.448 164.8C641.554 171.84 645.608 183.04 645.608 198.4V312H598.888V204.48C598.888 198.507 598.248 194.027 596.968 191.04C595.901 188.053 593.554 185.92 589.928 184.64C586.514 183.36 581.181 182.72 573.928 182.72C564.754 182.72 558.034 183.36 553.768 184.64C549.501 185.707 546.621 187.733 545.128 190.72C543.634 193.707 542.888 198.293 542.888 204.48V312H496.168V157.12ZM698.32 185.92H669.2V157.12H698.32V133.76C698.32 121.173 700.347 111.36 704.4 104.32C708.667 97.0667 715.067 92.0533 723.6 89.28C732.347 86.2933 743.973 84.8 758.48 84.8C766.373 84.8 778 85.6533 793.36 87.36V116.16C779.707 114.453 770.533 113.6 765.84 113.6C757.947 113.6 752.507 114.88 749.52 117.44C746.533 119.787 745.04 124.373 745.04 131.2V157.12H787.6V185.92H745.04V312H698.32V185.92ZM884.783 315.2C875.183 315.2 867.289 314.88 861.103 314.24C854.916 313.6 848.303 312.32 841.263 310.4C833.583 308.267 827.396 305.28 822.703 301.44C818.009 297.387 814.063 291.733 810.863 284.48C807.663 277.44 806.063 268.907 806.063 258.88V213.12C806.063 202.88 807.663 193.92 810.863 186.24C814.063 178.56 818.223 172.587 823.343 168.32C827.823 164.693 833.689 161.707 840.943 159.36C848.409 156.8 855.663 155.2 862.703 154.56C870.809 154.133 878.169 153.92 884.783 153.92C894.596 153.92 902.383 154.24 908.143 154.88C914.116 155.307 920.623 156.587 927.663 158.72C935.343 161.067 941.529 164.267 946.223 168.32C951.129 172.373 955.289 178.133 958.703 185.6C961.903 193.28 963.503 202.453 963.503 213.12V258.88C963.503 268.48 961.903 276.907 958.703 284.16C955.716 291.413 951.769 297.067 946.863 301.12C942.596 304.747 936.729 307.733 929.263 310.08C922.009 312.213 914.863 313.6 907.823 314.24C901.423 314.88 893.743 315.2 884.783 315.2ZM884.783 286.08C893.529 286.08 900.143 285.44 904.623 284.16C909.103 282.667 912.196 280.427 913.903 277.44C915.823 274.453 916.783 270.08 916.783 264.32V205.76C916.783 197.227 914.543 191.253 910.063 187.84C905.583 184.427 897.156 182.72 884.783 182.72C872.409 182.72 863.983 184.427 859.503 187.84C855.023 191.253 852.783 197.227 852.783 205.76V264.32C852.783 270.08 853.636 274.453 855.343 277.44C857.263 280.427 860.463 282.667 864.943 284.16C869.423 285.44 876.036 286.08 884.783 286.08ZM1001.84 104.32H1086C1105.84 104.32 1121.09 105.813 1131.76 108.8C1142.64 111.573 1150.32 116.16 1154.8 122.56C1159.28 128.747 1161.52 137.493 1161.52 148.8V174.4C1161.52 180.16 1159.17 185.6 1154.48 190.72C1150 195.84 1144.66 199.36 1138.48 201.28V202.88C1146.58 203.733 1153.94 207.253 1160.56 213.44C1167.38 219.413 1170.8 226.133 1170.8 233.6V265.6C1170.8 282.453 1164.08 294.4 1150.64 301.44C1137.2 308.48 1116.4 312 1088.24 312H1001.84V104.32ZM1086 188.8C1093.89 188.8 1099.76 188.16 1103.6 186.88C1107.44 185.6 1110 183.573 1111.28 180.8C1112.77 177.813 1113.52 173.547 1113.52 168V157.76C1113.52 152.853 1112.88 149.227 1111.6 146.88C1110.32 144.32 1107.65 142.507 1103.6 141.44C1099.76 140.373 1093.57 139.84 1085.04 139.84H1051.76V188.8H1086ZM1087.28 276.48C1099.44 276.48 1108.08 275.093 1113.2 272.32C1118.32 269.547 1120.88 265.067 1120.88 258.88V242.24C1120.88 234.56 1118.85 229.12 1114.8 225.92C1110.96 222.72 1104.02 221.12 1094 221.12H1051.76V276.48H1087.28ZM1256.8 315.2C1236.96 315.2 1222.99 311.68 1214.88 304.64C1206.99 297.387 1203.04 286.08 1203.04 270.72V157.12H1249.76V264.32C1249.76 270.293 1250.3 274.773 1251.36 277.76C1252.64 280.747 1254.99 282.88 1258.4 284.16C1262.03 285.44 1267.47 286.08 1274.72 286.08C1283.9 286.08 1290.62 285.547 1294.88 284.48C1299.15 283.2 1302.03 281.067 1303.52 278.08C1305.02 275.093 1305.76 270.507 1305.76 264.32V157.12H1352.48V312H1306.4V293.12C1302.99 307.84 1286.46 315.2 1256.8 315.2ZM1394.64 88H1441.36V312H1394.64V88ZM1484.95 88H1531.67V312H1484.95V88ZM1651.74 315.2C1596.91 315.2 1569.5 298.453 1569.5 264.96V209.28C1569.5 189.867 1575.69 175.787 1588.06 167.04C1600.65 158.293 1619.95 153.92 1645.98 153.92C1670.51 153.92 1688.43 158.187 1699.74 166.72C1711.26 175.04 1717.02 189.227 1717.02 209.28V247.04H1616.54V261.12C1616.54 270.08 1619.74 276.48 1626.14 280.32C1632.54 284.16 1644.06 286.08 1660.7 286.08C1676.06 286.08 1693.34 283.84 1712.54 279.36V309.12C1693.55 313.173 1673.29 315.2 1651.74 315.2ZM1672.54 220.48V198.08C1672.54 192.96 1670.41 189.12 1666.14 186.56C1662.09 184 1655.15 182.72 1645.34 182.72C1634.03 182.72 1626.46 184 1622.62 186.56C1618.57 189.333 1616.54 193.173 1616.54 198.08V220.48H1672.54ZM1830.17 315.2C1822.28 315.2 1815.66 314.88 1810.33 314.24C1805 313.6 1799.66 312.32 1794.33 310.4C1788.36 308.48 1783.45 305.813 1779.61 302.4C1775.98 298.987 1773 294.293 1770.65 288.32C1768.09 282.133 1766.81 274.987 1766.81 266.88V185.92H1735.45V157.12H1766.81V112.32H1813.53V157.12H1856.09V185.92H1813.53V258.88C1813.53 266.347 1814.17 272 1815.45 275.84C1816.73 279.467 1819.18 282.133 1822.81 283.84C1826.44 285.333 1831.98 286.08 1839.45 286.08C1842.44 286.08 1847.98 285.547 1856.09 284.48V313.6C1846.06 314.667 1837.42 315.2 1830.17 315.2ZM1884.32 101.12H1931.04V138.88H1884.32V101.12ZM1884.32 157.12H1931.04V312H1884.32V157.12ZM1973.36 157.12H2019.44V176C2023.06 161.28 2039.6 153.92 2069.04 153.92C2088.88 153.92 2102.74 157.547 2110.64 164.8C2118.74 171.84 2122.8 183.04 2122.8 198.4V312H2076.08V204.48C2076.08 198.507 2075.44 194.027 2074.16 191.04C2073.09 188.053 2070.74 185.92 2067.12 184.64C2063.7 183.36 2058.37 182.72 2051.12 182.72C2041.94 182.72 2035.22 183.36 2030.96 184.64C2026.69 185.707 2023.81 187.733 2022.32 190.72C2020.82 193.707 2020.08 198.293 2020.08 204.48V312H1973.36V157.12Z" fill="#707070"/>
</svg>
