<svg enable-background="new 0 0 24 24" height="24" viewBox="0 0 24 24" width="24" xmlns="http://www.w3.org/2000/svg"><path d="m0 0h24v24h-24z" fill="none"/><path d="m7.83 5h11.17v11.17zm8.34 14-2-2h-8.17l3-4 2 2.72.84-1.05-6.84-6.84v11.17z" opacity=".3"/><path d="m5.83 3h13.17c1.1 0 2 .9 2 2v13.17l-2-2v-11.17h-11.17zm14.66 20.31-2.32-2.31h-13.17c-1.1 0-2-.9-2-2v-13.17l-2.31-2.32 1.41-1.41 1.49 1.49 1.41 1.41 8.11 8.11 2.69 2.69 3.2 3.2 1.41 1.41 1.49 1.49zm-4.32-4.31-2-2h-8.17l3-4 2 2.72.84-1.05-6.84-6.84v11.17z"/></svg>